<?xml version="1.0" encoding="UTF-8" standalone="no"?>
<!-- Created with Inkscape (http://www.inkscape.org/) -->

<svg
   xmlns:dc="http://purl.org/dc/elements/1.1/"
   xmlns:cc="http://creativecommons.org/ns#"
   xmlns:rdf="http://www.w3.org/1999/02/22-rdf-syntax-ns#"
   xmlns:svg="http://www.w3.org/2000/svg"
   xmlns="http://www.w3.org/2000/svg"
   xmlns:sodipodi="http://sodipodi.sourceforge.net/DTD/sodipodi-0.dtd"
   xmlns:inkscape="http://www.inkscape.org/namespaces/inkscape"
   version="1.1"
   width="99.9375"
   height="149.34375"
   id="svg2"
   inkscape:version="0.48.2 r9819"
   sodipodi:docname="mic.svg">
  <sodipodi:namedview
     pagecolor="#ffffff"
     bordercolor="#666666"
     borderopacity="1"
     objecttolerance="10"
     gridtolerance="10"
     guidetolerance="10"
     inkscape:pageopacity="0"
     inkscape:pageshadow="2"
     inkscape:window-width="979"
     inkscape:window-height="785"
     id="namedview3852"
     showgrid="false"
     inkscape:zoom="1.5802469"
     inkscape:cx="-62.039062"
     inkscape:cy="74.671875"
     inkscape:window-x="0"
     inkscape:window-y="0"
     inkscape:window-maximized="0"
     inkscape:current-layer="svg2" />
  <defs
     id="defs4" />
  <metadata
     id="metadata7">
    <rdf:RDF>
      <cc:Work
         rdf:about="">
        <dc:format>image/svg+xml</dc:format>
        <dc:type
           rdf:resource="http://purl.org/dc/dcmitype/StillImage" />
        <dc:title />
      </cc:Work>
    </rdf:RDF>
  </metadata>
  <g
     transform="translate(-261.40625,-398.65625)"
     id="layer1"
     style="stroke:none">
    <path
       d="m 310.74554,398.79741 c -13.77234,0.3466 -24.75167,11.54899 -24.75167,25.40782 l 0,54.16021 c 0,14.07882 11.32901,25.41693 25.40782,25.41693 14.07882,0 25.41694,-11.33811 25.41694,-25.41693 l 0,-54.16021 c 0,-14.07882 -11.33812,-25.40782 -25.41694,-25.40782 -0.21998,0 -0.43754,-0.006 -0.65615,0 z m -49.19348,82.54807 c 1.70737,20.69158 16.00452,37.81849 35.21371,43.68906 l 0,22.81965 29.28096,0 0,-22.82876 c 19.20608,-5.87236 33.50652,-22.99059 35.21371,-43.67995 l -16.42213,0 c -1.91879,15.51822 -14.38813,27.76827 -30.01002,29.34476 l -6.84408,0 c -15.62306,-1.57649 -28.1081,-13.82654 -30.02825,-29.34476 l -16.4039,0 z"
       id="rect2985"
       style="color:#000000;fill:#808080;fill-opacity:1;fill-rule:nonzero;stroke:none;stroke-width:0.29162490000000002;stroke-linecap:round;stroke-linejoin:bevel;stroke-miterlimit:4;stroke-opacity:1;stroke-dasharray:0.87487468999999995, 0.87487468999999995;stroke-dashoffset:0;marker:none;visibility:visible;display:inline;overflow:visible;enable-background:accumulate" />
  </g>
</svg>
