<?xml version="1.0" encoding="utf-8"?>
<!-- Generator: Adobe Illustrator 15.0.0, SVG Export Plug-In . SVG Version: 6.00 Build 0)  -->
<!DOCTYPE svg PUBLIC "-//W3C//DTD SVG 1.1//EN" "http://www.w3.org/Graphics/SVG/1.1/DTD/svg11.dtd">
<svg version="1.1"
	 id="svg2" xmlns:rdf="http://www.w3.org/1999/02/22-rdf-syntax-ns#" xmlns:cc="http://web.resource.org/cc/" xmlns:dc="http://purl.org/dc/elements/1.1/" xmlns:svg="http://www.w3.org/2000/svg"
	 xmlns="http://www.w3.org/2000/svg" xmlns:xlink="http://www.w3.org/1999/xlink" x="0px" y="0px" width="612px" height="792px"
	 viewBox="0 0 612 792" enable-background="new 0 0 612 792" xml:space="preserve">
<path id="path2241" fill="#FEE43F" d="M559.294,181.794c1.064,10.099-36.554,91.916-52.156,143.184
	c-14.65,48.143-10.938,61.652-10.938,61.652s41.073,10.311,58.888,16.313c17.81,6.041,30.664,31.337,27.231,45.004l20.221,8.471
	c13.745,5.775,10.01,22.798-10.231,19.299l-20.239-3.499c-16.921,21.268-41.846,19.328-55.191,17.869
	c-13.353-1.423-45.776-8.381-50.893-5.353c-4.704,2.76-15.244,26.983-11.787,29.837c20.307,16.789,21.961,33.175-1.48,30.155
	c-26.053-3.354-46.129-11.1-46.129-11.1s-76.092,132.688-81.262,130.863c-19.22-6.835-74.34-21.579-84.461-22.256
	c-13.54-0.936,41.444-158.657,53.895-220.518c0.73-3.603-10.973-26.924-16.769-29.125c-45.827-17.396-126.257-51.709-160.13-55.436
	c-19.906-2.208-46.733,38.76-55.668,41.727c-10.59,3.503-57.027-3.853-59.93-5.509c-5.151-2.896,11.849-48.434,13.406-56.734
	c1.052-5.662,19.295-3.104,19.115-10.585c-0.157-6.091-28.294-36.903-27.839-41.233c3.042-27.137,28.625-73.274,42.2-87.814
	c4.179-4.488,24.34,30.735,30.349,29.327c3.92-0.94,18.423-23.547,23.065-23.542c6.828-0.023,57.296,7.335,60.014,13.253
	c4.864,10.526-24.696,78.661-14.832,82.404c65.375,24.856,127.04,25.421,195.773,50.672
	c39.635-43.977,130.728-172.063,136.002-170.793C489.851,160.833,558.829,177.431,559.294,181.794L559.294,181.794z
	 M441.461,480.232l-19.295,24.149c0,0,10.385,8.099,14.557,6.144C440.888,508.606,450.247,486.138,441.461,480.232L441.461,480.232z
	"/>
</svg>
