<?xml version="1.0" encoding="utf-8"?>
<!-- Generator: Adobe Illustrator 15.0.0, SVG Export Plug-In . SVG Version: 6.00 Build 0)  -->
<!DOCTYPE svg PUBLIC "-//W3C//DTD SVG 1.1//EN" "http://www.w3.org/Graphics/SVG/1.1/DTD/svg11.dtd">
<svg version="1.1"
	 id="svg2" xmlns:rdf="http://www.w3.org/1999/02/22-rdf-syntax-ns#" xmlns:cc="http://creativecommons.org/ns#" xmlns:dc="http://purl.org/dc/elements/1.1/" xmlns:svg="http://www.w3.org/2000/svg"
	 xmlns="http://www.w3.org/2000/svg" xmlns:xlink="http://www.w3.org/1999/xlink" x="0px" y="0px" width="612px" height="792px"
	 viewBox="0 0 612 792" enable-background="new 0 0 612 792" xml:space="preserve">
<g id="layer1" transform="translate(-115.21 -427.49)">
	<path id="path2918" fill="#5A4B9F" stroke="#4D2E90" stroke-width="10" stroke-miterlimit="10" d="M334.764,649.536l-17.324,22.981
		l9.9,17.206l-25.811,84.383c-16.875-11.664-36.832-18.503-58.219-18.503c-60.594,0-109.721,54.123-109.721,120.92
		c0,66.797,49.131,120.919,109.721,120.919c60.594,0,109.721-54.122,109.721-120.919c0-37.573-15.566-71.163-39.952-93.339
		l6.246-20.86l109.605,135.18c-2.37,3.162-3.89,7.058-3.89,11.313c0,10.338,8.329,18.779,18.621,18.975l4.479,26.87l-8.015-0.117
		v14.024l29.464,0.118l0.117-13.907l-8.603-0.117l-8.957-28.757c4.225-2.025,7.652-5.541,9.428-9.899l32.292-6.718
		c13.424,50.07,55.467,86.622,105.243,86.622c60.595,0,109.722-54.122,109.722-120.919c0-66.797-49.131-120.92-109.722-120.92
		c-22.071,0-42.658,7.204-59.867,19.564l-0.235-0.236l-37.36-39.599l4.95-16.028c6.123-0.15,11.286-0.354,11.785-0.354
		c1.307,0,9.792-1.794,13.082-4.243c5.616-4.18,11.565-12.353,12.61-13.789s1.777-4.169,0.472-6.128
		c-1.307-1.959-3.727-3.666-6.6-3.536c-2.874,0.13-5.701,0.503-27.578,2.593c-21.877,2.09-34.333,3.418-38.774,3.418
		c-4.44,0-15.772,0.036-16.971,0.354c-2.481,0.653-5.186,3.182-5.186,3.182s1.258,3.997,1.65,5.303
		c0.392,1.306,2.48,4.507,4.832,5.421c2.351,0.915,10.149,4.994,20.859,6.954c3.359,0.614,8.653,0.847,14.261,0.943l-2.946,10.135
		l-159.101,1.886l12.493-41.72l-3.653-7.778l4.714-6.835l42.31-1.061v-22.981h-50.086L334.764,649.536z M481.491,749.828
		l-38.774,129.875l-1.178-19.093h5.421l0.118-12.257l-25.928-0.117v12.257h7.661l4.007,20.389L325.335,750.417L481.491,749.828
		L481.491,749.828z M496.694,750.417l26.635,37.241c-20.858,22.009-33.941,52.983-33.941,87.329c0,4.583,0.257,9.103,0.707,13.553
		l-32.764,6.718c-0.322-0.316-0.717-0.532-1.061-0.825l40.424-144.018V750.417z M599.108,778.584
		c48.293,0,87.449,43.168,87.449,96.404s-39.156,96.404-87.449,96.404c-38.877,0-71.832-28.02-83.203-66.705l97.82-20.507
		l-61.284-90.746c13.502-9.409,29.519-14.85,46.672-14.85L599.108,778.584z M243.308,780.116c18.981,0,36.577,6.703,50.913,18.032
		l-9.664,31.584l-40.541,42.9c-0.468-0.252-0.919-0.506-1.414-0.707c-1.487-0.606-3.125-0.943-4.832-0.943
		c-7.345,0-13.317,5.973-13.317,13.317s5.973,13.317,13.317,13.317c4.59,0,8.57-2.355,10.96-5.893
		c0.048-0.072,0.07-0.163,0.117-0.235l46.671-49.733l9.9-33.117c15.692,17.426,25.338,41.395,25.338,67.884
		c0,53.236-39.156,96.404-87.449,96.404c-48.292,0-87.448-43.168-87.448-96.404c0-53.235,39.156-96.404,87.448-96.404
		L243.308,780.116z M537.118,806.987l44.665,62.464l-69.77,14.496c-0.245-2.939-0.354-5.948-0.354-8.957
		c0-26.554,9.697-50.563,25.456-68.001L537.118,806.987z"/>
</g>
</svg>
