<?xml version="1.0" encoding="utf-8"?>
<!-- Generator: Adobe Illustrator 15.0.0, SVG Export Plug-In . SVG Version: 6.00 Build 0)  -->
<!DOCTYPE svg PUBLIC "-//W3C//DTD SVG 1.1//EN" "http://www.w3.org/Graphics/SVG/1.1/DTD/svg11.dtd">
<svg version="1.1"
	 id="svg2" xmlns:rdf="http://www.w3.org/1999/02/22-rdf-syntax-ns#" xmlns:cc="http://creativecommons.org/ns#" xmlns:dc="http://purl.org/dc/elements/1.1/" xmlns:svg="http://www.w3.org/2000/svg"
	 xmlns="http://www.w3.org/2000/svg" xmlns:xlink="http://www.w3.org/1999/xlink" x="0px" y="0px" width="612px" height="792px"
	 viewBox="0 0 612 792" enable-background="new 0 0 612 792" xml:space="preserve">
<g id="layer1" transform="translate(20.571 -489.72)">
	<path id="path2996" fill="#FBB040" d="M151.245,1169.984c-5.252-0.902-15.874-8.578-23.863-17.246l-14.398-15.619v-31.703
		c0-90.555,12.448-354.951,17.103-363.258c3.578-6.394,20.908-13.153,153.573-59.911c46.232-16.293,88.141-29.625,93.125-29.625
		c5.127,0,14.93,5.02,22.564,11.555c13.605,11.648,37.494,20.263,56.184,20.263c19.102,0,19.467,2.404,14.986,98.198
		c-2.25,48.073-5.891,126.385-8.092,174.024c-2.672,57.82-5.57,89.742-8.717,96.018c-3.088,6.154-10.539,11.551-21.584,15.623
		c-65.104,24.02-223.746,88.537-231.966,94.334c-10.128,7.146-31.445,10.35-48.916,7.352L151.245,1169.984z M191.986,1149.343
		l18.222-5.293v-80.252l-23.67,1.688c-17.125,1.221-27.757,0.055-38.447-4.223c-8.127-3.252-15.592-5.096-16.59-4.1
		c-2.838,2.838-5.548,67.576-3.216,76.82c2.701,10.707,18.629,20.439,33.65,20.559
		C168.441,1154.593,181.964,1152.253,191.986,1149.343L191.986,1149.343z M331.47,1092.531
		c57.752-22.49,106.396-42.266,108.109-43.945c2.928-2.875,7.289-71.66,16.438-259.315c2.166-44.421,3.281-81.422,2.477-82.225
		c-0.805-0.804-49.838,13.382-108.967,31.524l-107.503,32.985l-2.323,23.241c-2.183,21.831-5.255,75.282-13.775,239.633
		c-1.965,37.916-4.498,75.699-5.629,83.965c-1.402,10.25-0.748,15.025,2.061,15.025c2.264,0,51.365-18.4,109.115-40.891
		L331.47,1092.531z M203.519,1046.499c8.211-2.203,9.173-9.305,14.237-105.148l2.398-45.377l-17.348,2.863
		c-24.515,4.045-38.844,2.746-54.36-4.932l-13.477-6.668l-2.547,69.588c-1.4,38.273-1.54,72.756-0.309,76.635
		s5.783,8.762,10.114,10.852c8.416,4.063,48.919,5.504,61.292,2.184L203.519,1046.499z M202.725,881.841
		c8.003-2.272,15.556-5.056,16.784-6.187s3.339-24.943,4.692-52.917c2.252-46.558,1.963-50.673-3.417-48.608
		c-3.233,1.241-14.582,3.278-25.221,4.528c-15.954,1.875-22.405,0.84-36.811-5.906c-9.606-4.5-18.11-7.513-18.897-6.697
		c-0.787,0.816-1.966,23.933-2.621,51.369c-1.261,52.917,0.172,58.655,16.283,65.186c10.576,4.286,32.616,3.942,49.209-0.768
		H202.725z M295.634,724.552c72.592-27.884,107.248-42.859,107.248-46.338c0-3.444-2.041-4.358-6.186-2.769
		c-132.884,50.976-219.034,84.894-221.668,87.27C164.074,772.605,200.763,760.995,295.634,724.552L295.634,724.552z
		 M336.595,729.669c53.957-18.014,98.105-33.969,98.105-35.456c0-8.206-34.094,0.735-112.236,29.433
		c-48.131,17.676-89.897,33.537-92.814,35.246c-16.95,9.934,19.457-0.014,106.943-29.221v-0.001H336.595z M252.63,719.784
		c42.777-15.833,90.9-33.657,106.943-39.606c16.043-5.952,29.168-12.308,29.168-14.125s-3.58-2.184-7.955-0.815
		c-139.961,43.8-235.6,75.815-237.979,79.666c-1.184,1.915-0.285,5.729,1.996,8.478c3.554,4.282,6,4.294,17.097,0.094
		c7.123-2.697,47.95-17.856,90.728-33.689L252.63,719.784z"/>
</g>
</svg>
