<?xml version="1.0" encoding="UTF-8" standalone="no"?>
<!-- Generator: Adobe Illustrator 15.0.0, SVG Export Plug-In . SVG Version: 6.00 Build 0)  -->

<svg
   xmlns:dc="http://purl.org/dc/elements/1.1/"
   xmlns:cc="http://creativecommons.org/ns#"
   xmlns:rdf="http://www.w3.org/1999/02/22-rdf-syntax-ns#"
   xmlns:svg="http://www.w3.org/2000/svg"
   xmlns="http://www.w3.org/2000/svg"
   xmlns:sodipodi="http://sodipodi.sourceforge.net/DTD/sodipodi-0.dtd"
   xmlns:inkscape="http://www.inkscape.org/namespaces/inkscape"
   version="1.1"
   id="svg1"
   x="0px"
   y="0px"
   width="574.18909"
   height="225.22731"
   viewBox="0 0 574.18909 225.22731"
   enable-background="new 0 0 612 792"
   xml:space="preserve"
   inkscape:version="0.48.2 r9819"
   sodipodi:docname="bus.svg"><metadata
   id="metadata15"><rdf:RDF><cc:Work
       rdf:about=""><dc:format>image/svg+xml</dc:format><dc:type
         rdf:resource="http://purl.org/dc/dcmitype/StillImage" /></cc:Work></rdf:RDF></metadata><defs
   id="defs13">
	
	
	

		
		
	
		
		
	</defs><sodipodi:namedview
   pagecolor="#ffffff"
   bordercolor="#666666"
   borderopacity="1"
   objecttolerance="10"
   gridtolerance="10"
   guidetolerance="10"
   inkscape:pageopacity="0"
   inkscape:pageshadow="2"
   inkscape:window-width="1228"
   inkscape:window-height="856"
   id="namedview11"
   showgrid="false"
   fit-margin-top="10"
   fit-margin-left="10"
   fit-margin-right="10"
   fit-margin-bottom="10"
   inkscape:zoom="0.67034093"
   inkscape:cx="287.09456"
   inkscape:cy="112.62443"
   inkscape:window-x="0"
   inkscape:window-y="0"
   inkscape:window-maximized="1"
   inkscape:current-layer="svg1" />
<path
   id="path3500"
   d="m 437.20365,181.9189 c 0,-16.32482 -11.87792,-29.53864 -26.51426,-29.53864 -14.63512,0 -26.51304,13.2126 -26.51304,29.53864 0,16.3053 11.87792,29.53864 26.51304,29.53864 14.63634,-0.001 26.51426,-13.23212 26.51426,-29.53864 z"
   style="fill:#000000;fill-opacity:1;stroke:#000000;stroke-width:6.5;stroke-miterlimit:4;stroke-opacity:1;stroke-dasharray:none"
   inkscape:connector-curvature="0" /><path
   id="path4122"
   d="m 425.05123,181.90914 c 0,-8.84134 -6.43306,-15.99176 -14.35208,-15.99176 -7.93488,0 -14.36916,7.14798 -14.36916,15.99176 0,8.84134 6.43306,16.01006 14.36916,16.01006 7.91902,-10e-4 14.35208,-7.16872 14.35208,-16.01006 z"
   style="fill:#ffff00;stroke:#000000;stroke-width:6.5;stroke-miterlimit:4;stroke-opacity:1;stroke-dasharray:none"
   inkscape:connector-curvature="0" /><path
   inkscape:connector-curvature="0"
   style="fill:#ffff00;stroke:#000000;stroke-width:6.5;stroke-miterlimit:4;stroke-opacity:1;stroke-dasharray:none"
   d="m 53.81375,44.292303 h 19.371 c 4.303,0 7.78,3.874 7.78,8.667 V 161.9303 c 0,4.794 -3.477,8.651 -7.78,8.651 h -19.371 c -4.303,0 -7.765,-3.857 -7.765,-8.651 V 52.960303 c -10e-4,-4.794 3.462,-8.668 7.765,-8.668 z m 399.928,-0.355 h 65.341 c 13.155,0 22.442,9.056 22.442,18.256 v 25.923 c 0,4.794 -3.462,8.652 -7.766,8.652 h -80.017 c -4.304,0 -7.766,-3.858 -7.766,-8.652 v -35.527 c 10e-4,-4.794 3.463,-8.652 7.766,-8.652 z m -113.311,0 h 79.975 c 4.304,0 7.766,3.858 7.766,8.652 v 35.527 c 0,4.794 -3.463,8.652 -7.766,8.652 h -79.975 c -4.303,0 -7.765,-3.858 -7.765,-8.652 v -35.527 c -10e-4,-4.794 3.462,-8.652 7.765,-8.652 z m -114.006,0 h 80.016 c 4.304,0 7.767,3.858 7.767,8.652 v 35.527 c 0,4.794 -3.463,8.652 -7.767,8.652 h -80.016 c -4.303,0 -7.766,-3.858 -7.766,-8.652 v -35.527 c -0.001,-4.794 3.463,-8.652 7.766,-8.652 z m -114.311,0 h 80.017 c 4.303,0 7.766,3.858 7.766,8.652 v 35.527 c 0,4.794 -3.463,8.652 -7.766,8.652 h -80.017 c -4.303,0 -7.781,-3.858 -7.781,-8.652 v -35.527 c 0,-4.794 3.478,-8.652 7.781,-8.652 z m 420.226,-30.685 -105.343,0.178 -67.109,0.177 -67.151,0.129 -67.152,0.193 -67.124,0.129 -126.77,-0.549 c -4.317,0.355 -7.779,3.454 -7.968,7.941 l -3.246,81.174997 -7.23,6.214 v 39.708 l 0.116,30.459 c -0.131,8.087 5.346,12.413 10.809,12.574 h 79.786 c -1.173,-3.682 -1.97,-5.488 -1.97,-9.637 -0.333,-21 14.894,-37.996 34.394,-37.996 20.153,0 33.453,18.837 33.279,37.996 0,4.133 -0.753,5.957 -1.941,9.637 h 118.136 l 92.912,0.258 c -1.188,-3.68 -1.985,-5.487 -1.985,-9.636 -0.231,-21.161 15.054,-38.175 34.975,-37.916 20.152,0 33.061,18.319 33.061,37.657 0.118,5.505 -0.347,7.521 -0.347,10.25 l 115.832,-25.634 0.637,-125.417997 c 0.186,-14.233 -15.765,-28.325 -28.601,-27.889 l 0,0 z"
   id="path4747" /><path
   id="path4749"
   d="m 162.37961,182.42466 c 0,-16.32482 -11.87792,-29.53864 -26.51304,-29.53864 -14.63634,0 -26.51304,13.21382 -26.51304,29.53864 0,16.3053 11.87792,29.53864 26.51304,29.53864 14.63512,-0.001 26.51304,-13.23456 26.51304,-29.53864 z"
   style="fill:#000000;fill-opacity:1;stroke:#000000;stroke-width:6.5;stroke-miterlimit:4;stroke-opacity:1;stroke-dasharray:none"
   inkscape:connector-curvature="0" /><path
   id="path4750"
   d="m 150.22719,182.41246 c 0,-8.84134 -6.43306,-15.99054 -14.35208,-15.99054 -7.9361,0 -14.37038,7.14798 -14.37038,15.99054 0,8.84256 6.4355,16.01128 14.37038,16.01128 7.91902,0.001 14.35208,-7.1675 14.35208,-16.01128 z"
   style="fill:#ffff00;stroke:#000000;stroke-width:6.5;stroke-miterlimit:4;stroke-opacity:1;stroke-dasharray:none"
   inkscape:connector-curvature="0" />
</svg>