<?xml version="1.0" encoding="utf-8"?>
<!-- Generator: Adobe Illustrator 15.0.0, SVG Export Plug-In . SVG Version: 6.00 Build 0)  -->
<!DOCTYPE svg PUBLIC "-//W3C//DTD SVG 1.1//EN" "http://www.w3.org/Graphics/SVG/1.1/DTD/svg11.dtd">
<svg version="1.1"
	 id="svg2" xmlns:rdf="http://www.w3.org/1999/02/22-rdf-syntax-ns#" xmlns:cc="http://web.resource.org/cc/" xmlns:dc="http://purl.org/dc/elements/1.1/" xmlns:svg="http://www.w3.org/2000/svg"
	 xmlns="http://www.w3.org/2000/svg" xmlns:xlink="http://www.w3.org/1999/xlink" x="0px" y="0px" width="612px" height="792px"
	 viewBox="0 0 612 792" enable-background="new 0 0 612 792" xml:space="preserve">
<path id="rect3170" fill="#105F31" d="M0.838,221.248h334.154c1.037,0,1.877,1.681,1.877,3.755v246.649
	c0,2.074-0.84,3.755-1.877,3.755H0.838c-1.037,0-1.877-1.681-1.877-3.755V225.003C-1.04,222.929-0.199,221.248,0.838,221.248z"/>
<path id="rect5799" fill="#105F31" d="M135.732,459.5h53.536c0.313,0,0.565,4.652,0.565,10.391v50.666
	c0,5.741-0.253,10.394-0.565,10.394h-53.536c-0.313,0-0.565-4.652-0.565-10.394v-50.666
	C135.167,464.152,135.419,459.5,135.732,459.5z"/>
<path id="rect5801" fill="#105F31" d="M0.937,524.5h334.548c1.339,0,2.424,2.195,2.424,4.901v49.827
	c0,2.708-1.085,4.901-2.424,4.901H0.937c-1.338,0-2.424-2.193-2.424-4.901v-49.827C-1.487,526.695-0.401,524.5,0.937,524.5z"/>
<path id="rect1359" fill="#5F5022" d="M-580.086,13.976h7.509c1.037,0,1.877,0,1.877,0l0,0c0,0-0.84,0-1.877,0H-580.086
	c-1.037,0-1.877,0-1.877,0l0,0C-581.963,13.976-581.123,13.976-580.086,13.976z"/>
<path id="rect1361" fill="#5F5022" d="M-469.323,44.008h35.668c1.037,0,1.877,0,1.877,0l0,0c0,0-0.84,0-1.877,0H-469.323
	c-1.037,0-1.877,0-1.877,0l0,0C-471.201,44.008-470.36,44.008-469.323,44.008z"/>
<path id="rect1363" fill="#5F5022" d="M-431.783,51.517h9.387c1.037,0,1.877,0,1.877,0l0,0c0,0-0.84,0-1.877,0H-431.783
	c-1.037,0-1.877,0-1.877,0l0,0C-433.66,51.517-432.82,51.517-431.783,51.517z"/>
<path id="rect4924" fill="#FFFFFF" d="M40.47,258.974h252.811c1.037,0,1.877,1.681,1.877,3.755v175.166
	c0,2.073-0.84,3.754-1.877,3.754H40.47c-1.037,0-1.877-1.681-1.877-3.754V262.729C38.592,260.655,39.433,258.974,40.47,258.974z"/>
<path id="rect1365" fill="#105F31" d="M369.706,155.487h202.745c1.037,0,1.877,0.84,1.877,1.877v426.147
	c0,1.037-0.84,1.878-1.877,1.878H369.706c-1.037,0-1.877-0.841-1.877-1.878V157.364
	C367.829,156.327,368.669,155.487,369.706,155.487z"/>
<path id="rect1992" fill="#FFFFFF" d="M512.267,210.505h33.76c1.036,0,1.877,1.307,1.877,2.919l0,0c0,1.612-0.841,2.919-1.877,2.919
	h-33.76c-1.037,0-1.878-1.307-1.878-2.919l0,0C510.389,211.813,511.229,210.505,512.267,210.505z"/>
<path id="rect2882" fill="#FFFFFF" d="M393.031,198.714h156.801c1.007,0,1.823,0.688,1.823,1.536v6.435
	c0,0.848-0.816,1.536-1.823,1.536H393.031c-1.007,0-1.823-0.688-1.823-1.536v-6.435
	C391.208,199.401,392.024,198.714,393.031,198.714z"/>
<path id="rect2884" fill="#FFFFFF" d="M393.085,234h161.451c1.036,0,1.877,1.465,1.877,3.272v13.705
	c0,1.807-0.841,3.271-1.877,3.271H393.085c-1.037,0-1.877-1.465-1.877-3.271v-13.705C391.208,235.464,392.048,234,393.085,234z"/>
<path id="rect2266" fill="#FFFFFF" d="M407.288,344.875h129.328c1.037,0,1.877,0.841,1.877,1.877v21.809
	c0,1.035-0.84,1.877-1.877,1.877H407.288c-1.036,0-1.877-0.842-1.877-1.877v-21.809
	C405.411,345.716,406.252,344.875,407.288,344.875z"/>
<path id="rect2262" fill="#FFFFFF" d="M391.227,197.32h161.451c1.036,0,1.877,1.465,1.877,3.272v13.705
	c0,1.807-0.841,3.271-1.877,3.271H391.227c-1.037,0-1.877-1.465-1.877-3.271v-13.705C389.35,198.785,390.189,197.32,391.227,197.32z
	"/>
<path id="rect2884_1_" fill="#FFFFFF" d="M418.163,424.665h30.496c0.195,0,0.354,4.25,0.354,9.495v39.765
	c0,5.242-0.159,9.492-0.354,9.492h-30.496c-0.196,0-0.354-4.25-0.354-9.492V434.16C417.809,428.915,417.967,424.665,418.163,424.665
	z"/>
</svg>
