<?xml version="1.0" encoding="utf-8"?>
<!-- Generator: Adobe Illustrator 15.0.0, SVG Export Plug-In . SVG Version: 6.00 Build 0)  -->
<!DOCTYPE svg PUBLIC "-//W3C//DTD SVG 1.1//EN" "http://www.w3.org/Graphics/SVG/1.1/DTD/svg11.dtd">
<svg version="1.1" id="Layer_1" xmlns="http://www.w3.org/2000/svg" xmlns:xlink="http://www.w3.org/1999/xlink" x="0px" y="0px"
	 width="612px" height="792px" viewBox="0 0 612 792" enable-background="new 0 0 612 792" xml:space="preserve">
<g>
	<path id="path888" fill="#88CFF3" stroke="#2C96D3" stroke-width="10" stroke-miterlimit="10" d="M536.396,458.278
		c0,0-86.896-143.401-103.896-147.654c-2.845,0-8.261-1.154-9.673,4.515c0,15.6,99.408,155.894,109.318,162.985
		C540.676,476.688,537.829,468.184,536.396,458.278L536.396,458.278z"/>
	<path id="path889" fill="#88CFF3" stroke="#2C96D3" stroke-width="10" stroke-miterlimit="10" d="M439.293,315.283
		c0,0-15.894-31.498-38.523-41.729c-27.061-13.854-51.872-8.208-69.594,4.233c-7.214,8.05-25.625,18.311-16.673,31.787
		c3.682,5.476,9.697,7.658,16.583,4.968c8.082-6.256,24.486-49.008,62.797-23.132c17.482,10.357,19.098,19.506,27.928,26.967
		C420.468,322.408,434.834,306.303,439.293,315.283z"/>
	<path id="path869" fill="#88CFF3" stroke="#2C96D3" stroke-width="10" stroke-miterlimit="10" d="M71.178,460.912
		c0,0,86.902-143.4,103.914-147.654c2.836,0,8.256-1.152,9.675,4.518c0,15.596-99.41,155.888-109.335,162.983
		C66.925,479.322,69.763,470.825,71.178,460.912z"/>
	<path id="path870" fill="#88CFF3" stroke="#2C96D3" stroke-width="10" stroke-miterlimit="10" d="M168.283,317.919
		c0,0,15.918-31.499,38.52-41.73c27.062-13.854,51.882-8.205,69.62,4.234c7.196,8.051,25.599,18.314,16.673,31.789
		c-3.684,5.474-9.705,7.656-16.594,4.967c-8.084-6.254-24.501-49.01-62.811-23.136c-17.458,10.361-19.086,19.51-27.916,26.965
		C187.13,325.039,172.742,308.94,168.283,317.919z"/>
	<path id="path1193" fill="#88CFF3" stroke="#2C96D3" stroke-width="10" stroke-miterlimit="10" d="M303.338,444.519
		c-5.896-0.058-11.849,0.597-17.298,2.543c-5.479,1.92-10.957,5.393-13.47,11.494l8.952,6.525c0.327-0.808,6.403-2.901,9.459-4.013
		c3.081-1.073,7.571-1.611,12.152-1.582c4.609,0.057,9.31,0.688,12.93,1.706c3.596,1.014,5.898,2.904,5.6,2.515l11.701-9.338
		c-3.563-4.463-8.053-6.136-13.197-7.606C315.043,445.326,309.236,444.578,303.338,444.519L303.338,444.519z"/>
	<path id="path1181" fill="#88CFF3" stroke="#2C96D3" stroke-width="10" stroke-miterlimit="10" d="M93.802,458.174
		c0-14.694-16.516-1.013-23.029,3.715c-3.263,2.907-4.914,15.478-1.657,18.919c2.79,4.876,16.278,0.809,22.216,0.809
		C97.367,475.6,93.094,467.308,93.802,458.174z"/>
	<path id="path1183" fill="#88CFF3" stroke="#2C96D3" stroke-width="10" stroke-miterlimit="10" d="M208.761,402.532
		c-34.804-1.048-70.772,2.245-102.519,19.456l-0.188,0.089c-11.66,6.886-17.271,17.81-18.988,28.166
		c-1.716,10.329-0.199,20.382,0.842,28.048c0.026,0.147,0.057,0.299,0.092,0.48c6.026,28.341,29.855,53.787,61.455,57.619h0.189
		c32.349,3.112,66.826,3.886,99.243-6.736c0.127-0.03,0.25-0.06,0.378-0.091c12.712-4.821,21.539-14.456,26.937-25.351
		c5.296-10.715,7.417-22.719,7.576-34.065h0.096c0.021-0.211-0.023-0.419,0-0.655c1.473-15.653,1.849-30.265-3.742-42.563
		c-5.673-12.453-18.417-20.923-37.137-22.243C231.832,403.729,220.361,402.862,208.761,402.532z M208.481,417.499
		c11.162,0.299,22.286,1.108,33.301,2.067h0.188c15.267,1.045,20.945,5.715,24.509,13.562c3.563,7.811,3.974,20.443,2.525,35.528
		c-0.042,0.21-0.073,0.449-0.091,0.659c-0.07,9.638-1.972,19.933-6.086,28.253c-4.098,8.289-10.062,14.611-18.798,17.96
		c-0.024,0-0.066-0.028-0.092,0c-29.113,9.458-61.431,9.009-92.886,5.988c-24.452-2.964-43.609-23.616-48.362-45.735
		c-0.005-0.06-0.084-0.06-0.095-0.091c-1.005-7.483-1.937-15.775-0.749-22.93c1.205-7.242,4.005-12.986,11.599-17.599
		C141.682,419.863,174.992,416.57,208.481,417.499L208.481,417.499z"/>
	<path id="path1191" fill="#88CFF3" stroke="#2C96D3" stroke-width="10" stroke-miterlimit="10" d="M512.43,453.296
		c0-14.7,16.514-1.019,23.024,3.709c3.263,2.904,4.915,15.478,1.656,18.919c-2.79,4.882-16.276,0.811-22.216,0.811
		C508.861,470.716,513.135,462.427,512.43,453.296z"/>
	<path id="path1190" fill="#88CFF3" stroke="#2C96D3" stroke-width="10" stroke-miterlimit="10" d="M397.466,397.65
		c34.809-1.046,70.777,2.247,102.521,19.456l0.19,0.091c11.658,6.883,17.271,17.811,18.982,28.163
		c1.72,10.33,0.201,20.386-0.839,28.05c-0.027,0.145-0.055,0.296-0.094,0.478c-6.025,28.344-29.853,53.785-61.452,57.622h-0.191
		c-32.346,3.109-66.828,3.889-99.244-6.736c-0.122-0.031-0.249-0.06-0.375-0.094c-12.708-4.813-21.539-14.453-26.938-25.345
		c-5.295-10.719-7.416-22.725-7.576-34.066h-0.097c-0.021-0.21,0.023-0.418,0-0.66c-1.473-15.653-1.846-30.261,3.742-42.563
		c5.676-12.453,18.417-20.923,37.138-22.239C374.398,398.849,385.869,397.978,397.466,397.65z M397.749,412.617
		c-11.16,0.3-22.282,1.11-33.301,2.064h-0.188c-15.268,1.05-20.941,5.718-24.506,13.562c-3.563,7.81-3.977,20.441-2.526,35.526
		c0.041,0.213,0.072,0.452,0.093,0.662c0.07,9.638,1.965,19.936,6.082,28.256c4.103,8.289,10.064,14.606,18.802,17.96
		c0.031,0,0.07-0.031,0.092,0c29.111,9.458,61.436,9.009,92.889,5.985c24.45-2.964,43.607-23.616,48.362-45.735
		c0.006-0.06,0.086-0.06,0.091-0.093c1.007-7.481,1.938-15.773,0.745-22.925c-1.2-7.245-4.004-12.994-11.599-17.605
		C464.546,414.98,431.233,411.687,397.749,412.617L397.749,412.617z"/>
</g>
</svg>
