<?xml version="1.0" encoding="utf-8"?>
<!-- Generator: Adobe Illustrator 15.0.0, SVG Export Plug-In . SVG Version: 6.00 Build 0)  -->
<!DOCTYPE svg PUBLIC "-//W3C//DTD SVG 1.1//EN" "http://www.w3.org/Graphics/SVG/1.1/DTD/svg11.dtd">
<svg version="1.1"
	 id="svg2" xmlns:rdf="http://www.w3.org/1999/02/22-rdf-syntax-ns#" xmlns:dc="http://purl.org/dc/elements/1.1/" xmlns:cc="http://creativecommons.org/ns#" xmlns:svg="http://www.w3.org/2000/svg"
	 xmlns="http://www.w3.org/2000/svg" xmlns:xlink="http://www.w3.org/1999/xlink" x="0px" y="0px" width="612px" height="792px"
	 viewBox="0 0 612 792" enable-background="new 0 0 612 792" xml:space="preserve">
<path id="path2987" fill="#8B5E3C" stroke="#8B5E3C" stroke-width="10" stroke-miterlimit="10" d="M406.999,585.95
	c6.686-1.91,7.084-4.279,1.593-9.501c-2.127-2.022-6.633-5.61-10.015-7.974c-4.188-2.927-6.77-5.513-8.099-8.11
	c-6.938-13.572-6.896-36.847,0.106-57.943c3.077-9.274,6.408-26.503,6.408-33.155c0-1.292,2.813-10.837,6.25-21.212
	c3.438-10.374,7.598-24.184,9.245-30.688l2.997-11.825l6.077-6.368c7.019-7.354,9.034-11.837,11.249-25.016
	c1.355-8.061,1.866-13.103,4.184-41.285c0.819-9.967,1.206-11.491,4.951-19.559c2.898-6.24,4.604-11.619,5.949-18.756
	c2.198-11.669,10.342-40.255,12.889-45.249l1.756-3.441l2.791,1.443c1.535,0.793,8.176,3.287,14.759,5.54
	c15.512,5.31,19.021,7.3,26.74,15.171c5.395,5.5,6.707,7.474,8.37,12.589c1.739,5.351,4.618,8.557,6.965,9.661
	c0.88,0.221,2.083,0.275,3.369-0.737c1.854-1.457,3.104-1.717,6.022-1.25c4.338,0.693,7.749-1.091,9.401-4.918
	c0.583-1.349,2.253-3.856,3.712-5.571c2.717-3.194,5.152-8.104,5.152-10.385c0-0.704-3.333-6.755-7.405-13.447
	c-11.077-18.197-18.626-33.852-21.312-44.199c-3.039-11.705-3.982-13.311-11.87-20.187c-7.411-6.46-8.359-8.13-6.356-11.191
	c3.009-4.598,5.4-18.971,3.365-20.229c-0.452-0.28-2.041,1.641-3.531,4.268c-3.142,5.542-8.014,11.359-8.831,10.543
	c-0.309-0.309,0.075-3.021,0.854-6.025c1.646-6.357,1.768-8.384,0.501-8.384c-0.501,0-4.073,3.15-7.937,7.001l-7.024,7.001
	l-11.384,0.718c-19.908,1.255-31.863,4.791-47.42,14.026c-18.696,11.098-27.191,19.175-45.833,43.576
	c-20.188,26.426-21.263,27.516-32.667,33.128c-15.218,7.488-36.124,11.583-63.96,12.527c-22.606,0.767-40.357-1.542-71.234-9.267
	c-20.279-5.073-28.839-6.271-44.575-6.236c-17.196,0.037-30.026,1.769-44.042,5.943c-7.591,2.261-11.713,2.871-23.882,3.531
	c-17.657,0.959-25.86,2.545-34.385,6.647c-19.446,9.359-28.321,27.66-32.482,66.983c-0.839,7.933-1.187,25.125-1.149,56.856
	c0.058,49.326,1.015,67.559,3.896,74.19l1.756,4.043l1.011-2.561c0.557-1.409,1.908-16.98,1.985-17.823
	c0.078-0.843-0.411,17.022-0.069,22.922c0.342,5.898,1.065,11.169,1.607,11.71c0.993,0.993,2.415-7.196,4.558-16.356
	c0.709-3.027,0.035,2.627,0.114,10.991c0.11,11.792,2.935,14.535,6.996,11.118c1.908-1.605,2.587-19.059,3.262-18.384
	c1.626,1.627-2.275,21.071-1.143,17.294c0.6-2.002,4.519-5.72,5.15-5.72c1.588,0,3.291-5.583,8.51-27.916
	c2.478-10.603,5.215-21.449,6.083-24.107c1.375-4.214,1.717-12.171,2.663-62.144c1.193-63.003,0.867-59.648,7.432-76.415
	c3.655-9.337,6.831-14.101,9.401-14.101c2.146,0,2.465,4.045,0.541,6.848c-2.803,4.082-6.836,12.172-8.83,17.714
	c-1.809,5.026-2.124,7.617-2.104,17.284c0.032,15.392,1.936,24.667,10.036,48.895c8.362,25.01,9.129,31.022,5.424,42.53
	c-2.691,8.356-7.046,15.351-15.52,24.924c-3.276,3.701-6.399,8.204-6.939,10.007c-0.546,1.821-1.322,17.406-1.748,35.115
	l-0.766,31.839l-3.261,14.032c-4.036,17.367-4.116,19.604-0.759,21.296c1.376,0.692,3.726,1.555,5.222,1.914
	c3.662,0.882,4.119,1.907,3.498,7.851c-0.451,4.31-0.215,5.559,1.559,8.264c4.162,6.349,13.027,9.553,22.244,8.037
	c6.367-1.046,7.732-1.729,7.732-3.872c0-4.347-10.592-18.951-17.337-23.9c-3.38-2.481-4.371-3.826-4.82-6.545
	c-1.117-6.76-0.616-36.22,0.75-44.014c3.093-17.661,11.454-35.077,25.503-53.123c5.642-7.248,16.712-17.911,19.176-18.474
	c1.795-0.409,1.635,1.351-1.085,11.884c-3.116,12.066-2.757,14.575,3.967,27.753c3,5.88,5.903,12.122,6.45,13.874
	c0.547,1.751,2.058,11.764,3.358,22.249c2.681,21.625,5.288,35.381,7.28,38.421c0.748,1.142,2.978,2.9,4.955,3.909
	c4.094,2.089,4.575,2.824,7.832,11.991c3.37,9.482,3.911,9.885,14.108,10.477c7.839,0.454,8.76,0.329,11.054-1.495
	c1.376-1.096,2.502-2.632,2.502-3.415c0-2.103-9.292-12.835-15.245-17.607c-4.583-3.675-5.458-4.935-7.591-10.916
	c-1.326-3.72-4.313-11.235-6.64-16.699c-7.731-18.167-8.145-30.056-2.233-64.205c4.619-26.685,15.188-54.385,24.223-70.358
	c1.834-3.244,4.42-6.143,9.064-8.668c4.149-0.127,7.781,1.844,12.244,3.408c40.242,21.543,46.198,22.814,120.362,25.68
	c15.011,0.58,27.627,1.357,28.039,1.729c1.399,1.259,2.288,28.022,1.501,45.2c-1.218,26.583-3.491,55.407-5.933,75.247
	c-2.833,23.013-2.904,28.402-0.386,29.201c3.018,0.957,4.901,4.912,5.512,11.571c0.315,3.446,1.063,6.754,1.661,7.35
	c1.885,1.88,17.993,1.291,22.774-0.834l4.044-1.797l-5.749-6.079c-12.207-12.906-13.264-15.831-13.226-36.601
	c0.023-12.961,0.308-15.65,2.6-24.562c2.421-9.41,5.86-18.031,5.99-15.011c0.032,0.752,0.44,4.025,0.908,7.278
	c0.467,3.252,1.299,17.375,1.847,31.385c1.021,26.12,1.806,32.294,4.104,32.294c1.96,0,3.888,3.516,4.995,9.109
	c0.543,2.746,1.171,5.872,1.396,6.947c0.247,1.188,1.535,2.349,3.277,2.956c3.492,1.219,14.607,1.176,18.974-0.072L406.999,585.95z"
	/>
</svg>
