<?xml version="1.0" encoding="utf-8"?>
<!-- Generator: Adobe Illustrator 15.0.0, SVG Export Plug-In . SVG Version: 6.00 Build 0)  -->
<!DOCTYPE svg PUBLIC "-//W3C//DTD SVG 1.1//EN" "http://www.w3.org/Graphics/SVG/1.1/DTD/svg11.dtd">
<svg version="1.1"
	 id="svg6062" xmlns:rdf="http://www.w3.org/1999/02/22-rdf-syntax-ns#" xmlns:cc="http://creativecommons.org/ns#" xmlns:dc="http://purl.org/dc/elements/1.1/" xmlns:svg="http://www.w3.org/2000/svg"
	 xmlns="http://www.w3.org/2000/svg" xmlns:xlink="http://www.w3.org/1999/xlink" x="0px" y="0px" width="612px" height="792px"
	 viewBox="0 0 612 792" enable-background="new 0 0 612 792" xml:space="preserve">
<title  id="title6087">Library Pictogram</title>
<g>
	<path id="path3095-8-4-1" fill="#2BB673" d="M600.86,310.68H11.254l147.401-104.717l147.401-104.717l147.402,104.717L600.86,310.68
		z"/>
	<path id="rect3888-8-8-09-6-3-4" fill="#2BB673" d="M68.419,293.155v353.813H31.961v47.813h554.625v-47.813h-36.309V293.155
		h-53.043v353.813H121.447V293.155H68.404H68.419z"/>
</g>
<path id="path5652-4-1-50-9" fill="#006838" d="M321.217,579.557c43.484-30.026,86.957-26.141,130.442,12.851v-188.41
	c-23.73-21.277-47.543-32.144-71.274-32.871c-19.736-0.604-39.432,6.141-59.168,19.723v188.71V579.557z"/>
<path id="path5650-8-5-7-5" fill="#006838" d="M297.311,390.841c-19.737-13.582-39.582-20.327-59.321-19.723
	c-23.73,0.727-47.393,11.593-71.121,32.871v188.41c43.484-38.99,86.957-42.877,130.442-12.851V390.838V390.841z"/>
</svg>
