<?xml version="1.0" encoding="utf-8"?>
<!-- Generator: Adobe Illustrator 15.0.0, SVG Export Plug-In . SVG Version: 6.00 Build 0)  -->
<!DOCTYPE svg PUBLIC "-//W3C//DTD SVG 1.1//EN" "http://www.w3.org/Graphics/SVG/1.1/DTD/svg11.dtd">
<svg version="1.1"
	 id="svg5126" xmlns:rdf="http://www.w3.org/1999/02/22-rdf-syntax-ns#" xmlns:cc="http://web.resource.org/cc/" xmlns:dc="http://purl.org/dc/elements/1.1/" xmlns:svg="http://www.w3.org/2000/svg"
	 xmlns="http://www.w3.org/2000/svg" xmlns:xlink="http://www.w3.org/1999/xlink" x="0px" y="0px" width="612px" height="792px"
	 viewBox="0 0 612 792" enable-background="new 0 0 612 792" xml:space="preserve">
<path id="rect5134" fill="#F04B2A" stroke="#7D1416" stroke-width="8" stroke-miterlimit="10" d="M222.924,347.199h231.394
	c43.695,0,79.121,31.381,79.121,70.088v114.037c0,38.709-35.424,70.089-79.121,70.089H222.924c-43.698,0-79.122-31.38-79.122-70.089
	V417.287C143.802,378.58,179.226,347.199,222.924,347.199z"/>
<path id="path6135" fill="#F04B2A" stroke="#7D1416" stroke-width="8" stroke-miterlimit="10" d="M456.959,431.028
	c0.12,9.656-7.609,17.581-17.266,17.702c-9.657,0.118-17.581-7.609-17.701-17.266c-0.002-0.145-0.002-0.291,0-0.437
	c-0.121-9.656,7.609-17.582,17.265-17.701c9.656-0.122,17.582,7.609,17.702,17.267C456.961,430.738,456.961,430.884,456.959,431.028
	z"/>
<path id="path6141" fill="#F04B2A" stroke="#7D1416" stroke-width="8" stroke-miterlimit="10" d="M456.959,485.397
	c0.12,9.656-7.608,17.581-17.266,17.702c-9.656,0.118-17.581-7.609-17.701-17.266c0-0.145,0-0.291,0-0.437
	c-0.12-9.656,7.609-17.582,17.265-17.701c9.656-0.122,17.581,7.609,17.702,17.267C456.962,485.107,456.962,485.253,456.959,485.397z
	"/>
<path id="rect6113" fill="#F04B2A" stroke="#7D1416" stroke-width="8" stroke-miterlimit="10" d="M222.59,393.69h69.334
	c13.093,0,23.708,19.715,23.708,44.035v71.646c0,24.318-10.615,44.034-23.708,44.034H222.59c-13.093,0-23.707-19.716-23.707-44.034
	v-71.646C198.883,413.405,209.497,393.69,222.59,393.69z"/>
<rect id="rect7223" x="196.878" y="429.156" fill="#F04B2A" stroke="#7D1416" stroke-width="8" stroke-miterlimit="10" width="120.566" height="3.745"/>
<rect id="rect7227" x="196.13" y="471.84" fill="#F04B2A" stroke="#7D1416" stroke-width="8" stroke-miterlimit="10" width="120.566" height="3.742"/>
<rect id="rect7231" x="196.13" y="512.626" fill="#F04B2A" stroke="#7D1416" stroke-width="8" stroke-miterlimit="10" width="120.566" height="3.744"/>
<path id="path7244" fill="#F04B2A" stroke="#7D1416" stroke-width="8" stroke-miterlimit="10" d="M252.292,610.366
	c0,8.271-11.734,14.978-26.21,14.978c-14.477,0-26.211-6.706-26.211-14.978s11.734-14.978,26.211-14.978
	C240.558,595.389,252.292,602.095,252.292,610.366z"/>
<path id="path7246" fill="#F04B2A" stroke="#7D1416" stroke-width="8" stroke-miterlimit="10" d="M479.193,611.863
	c0,8.271-11.735,14.978-26.211,14.978c-14.478,0-26.213-6.706-26.213-14.978c0-8.271,11.735-14.978,26.213-14.978
	C467.458,596.886,479.193,603.593,479.193,611.863z"/>
<path id="rect7248" fill="#F04B2A" stroke="#7D1416" stroke-width="20" stroke-miterlimit="10" d="M182.515,213.251L182.515,213.251
	c1.362-0.68,21.612,16.375,45.23,38.091l54.83,50.422c23.618,21.719,41.659,39.877,40.296,40.557l0,0
	c-1.362,0.68-21.612-16.375-45.231-38.092l-54.829-50.421C199.195,232.091,181.153,213.934,182.515,213.251z"/>
<path id="rect7250" fill="#F04B2A" stroke="#7D1416" stroke-width="20" stroke-miterlimit="10" d="M497.996,213.964L497.996,213.964
	c-1.362-0.683-21.614,16.373-45.229,38.092l-54.831,50.42c-23.619,21.719-41.659,39.876-40.297,40.559l0,0
	c1.363,0.68,21.613-16.375,45.229-38.092l54.832-50.422C481.317,232.802,499.358,214.644,497.996,213.964z"/>
<path id="path6141_1_" fill="#F04B2A" stroke="#7D1416" stroke-width="8" stroke-miterlimit="10" d="M456.959,534.072
	c0.12,9.656-7.608,17.581-17.266,17.702c-9.656,0.118-17.581-7.609-17.701-17.266c0-0.145,0-0.291,0-0.437
	c-0.12-9.656,7.609-17.582,17.265-17.701c9.656-0.122,17.581,7.609,17.702,17.267C456.962,533.782,456.962,533.928,456.959,534.072z
	"/>
</svg>
