<?xml version="1.0" encoding="UTF-8" standalone="no"?>
<!-- Generator: Adobe Illustrator 15.0.0, SVG Export Plug-In . SVG Version: 6.00 Build 0)  -->

<svg
   xmlns:dc="http://purl.org/dc/elements/1.1/"
   xmlns:cc="http://creativecommons.org/ns#"
   xmlns:rdf="http://www.w3.org/1999/02/22-rdf-syntax-ns#"
   xmlns:svg="http://www.w3.org/2000/svg"
   xmlns="http://www.w3.org/2000/svg"
   xmlns:sodipodi="http://sodipodi.sourceforge.net/DTD/sodipodi-0.dtd"
   xmlns:inkscape="http://www.inkscape.org/namespaces/inkscape"
   version="1.1"
   id="Layer_1"
   x="0px"
   y="0px"
   width="196.00377"
   height="303.56879"
   viewBox="0 0 196.00377 303.56879"
   enable-background="new 0 0 612 792"
   xml:space="preserve"
   inkscape:version="0.48.2 r9819"
   sodipodi:docname="tea.svg"><metadata
   id="metadata23"><rdf:RDF><cc:Work
       rdf:about=""><dc:format>image/svg+xml</dc:format><dc:type
         rdf:resource="http://purl.org/dc/dcmitype/StillImage" /></cc:Work></rdf:RDF></metadata><defs
   id="defs21" /><sodipodi:namedview
   pagecolor="#ffffff"
   bordercolor="#666666"
   borderopacity="1"
   objecttolerance="10"
   gridtolerance="10"
   guidetolerance="10"
   inkscape:pageopacity="0"
   inkscape:pageshadow="2"
   inkscape:window-width="1228"
   inkscape:window-height="856"
   id="namedview19"
   showgrid="false"
   inkscape:zoom="0.9327649"
   inkscape:cx="72.00051"
   inkscape:cy="95.50825"
   inkscape:window-x="0"
   inkscape:window-y="0"
   inkscape:window-maximized="0"
   inkscape:current-layer="Layer_1"
   fit-margin-top="10"
   fit-margin-left="10"
   fit-margin-right="10"
   fit-margin-bottom="10" />
<path
   stroke-miterlimit="10"
   d="m 12.50675,137.41603 h 131.523 c 0,0 1.072,13.116 1.366,31.683 0.714,44.981 -3.134,121.96 -37.833,121.96 -49.022,0 -52.012,0 -52.012,0 0,0 -43.044,-5.978 -43.044,-153.643 z"
   id="path3"
   inkscape:connector-curvature="0"
   style="fill:#ed1c24;stroke:#ed1c24;stroke-width:5;stroke-linecap:round;stroke-linejoin:round;stroke-miterlimit:10" />
<path
   stroke-miterlimit="10"
   d="m 138.64975,162.23203 c 34.076,-4.893 44.838,39.134 44.838,39.134 0,0 1.196,44.026 -49.022,37.503 -50.218,-6.521 0,-17.12 0,-17.12 0,0 43.042,-7.058 34.673,-21.059 -8.369,-14 -35.271,-29.491 -38.859,-18.077 -3.586,11.415 8.37,-20.381 8.37,-20.381 z"
   id="path5"
   inkscape:connector-curvature="0"
   style="fill:#ed1c24;stroke:#ed1c24;stroke-width:5;stroke-linecap:round;stroke-linejoin:round;stroke-miterlimit:10" />
<path
   stroke-miterlimit="10"
   d="m 134.99275,20.069031 c 0,0 -18.814,11.514 -21.712,21.652 -5.015,17.548 2.541,15.714 0.45,27.845 -2.092,12.13 -12.55,18.926 -9.063,30.570999"
   id="path7"
   inkscape:connector-curvature="0"
   style="fill:none;stroke:#f58220;stroke-width:20;stroke-linecap:round;stroke-linejoin:round;stroke-miterlimit:10" />
<path
   stroke-miterlimit="10"
   d="m 88.78175,20.069031 c 0,0 -18.814,12.629 -21.712,23.75 -5.015,19.248 2.541,17.235 0.45,30.542 -2.092,13.306 -12.55,20.758 -9.063,33.531999"
   id="path9"
   inkscape:connector-curvature="0"
   style="fill:none;stroke:#f58220;stroke-width:20;stroke-linecap:round;stroke-linejoin:round;stroke-miterlimit:10" />
<g
   id="g11"
   style="fill:#ffffff;fill-opacity:1;stroke:#ffffff;stroke-opacity:1"
   transform="translate(-170.03125,-191.27497)">
	<polygon
   stroke-miterlimit="10"
   points="270.551,364.072 224.408,373.281 235.071,406.967 282.178,397.03 "
   id="polygon13"
   style="fill:#ffffff;fill-opacity:1;stroke:#ffffff;stroke-width:20;stroke-linejoin:round;stroke-miterlimit:10;stroke-opacity:1" />
	<path
   stroke-miterlimit="10"
   d="M 237.009,330.145"
   id="path15"
   style="fill:#ffffff;fill-opacity:1;stroke:#ffffff;stroke-width:20;stroke-linejoin:round;stroke-miterlimit:10;stroke-opacity:1"
   inkscape:connector-curvature="0" />
</g>
<path
   stroke-miterlimit="10"
   d="m 76.78575,175.64003 c 0,0 16.894,-43.078 -3.334,-43.078"
   id="path17"
   inkscape:connector-curvature="0"
   style="fill:none;stroke:#f58220;stroke-width:20;stroke-linecap:round;stroke-miterlimit:10" />
</svg>