<?xml version="1.0" encoding="utf-8"?>
<!-- Generator: Adobe Illustrator 15.0.0, SVG Export Plug-In . SVG Version: 6.00 Build 0)  -->
<!DOCTYPE svg PUBLIC "-//W3C//DTD SVG 1.1//EN" "http://www.w3.org/Graphics/SVG/1.1/DTD/svg11.dtd">
<svg version="1.1"
	 id="svg3003" xmlns:rdf="http://www.w3.org/1999/02/22-rdf-syntax-ns#" xmlns:cc="http://creativecommons.org/ns#" xmlns:dc="http://purl.org/dc/elements/1.1/" xmlns:svg="http://www.w3.org/2000/svg"
	 xmlns="http://www.w3.org/2000/svg" xmlns:xlink="http://www.w3.org/1999/xlink" x="0px" y="0px" width="612px" height="792px"
	 viewBox="0 0 612 792" enable-background="new 0 0 612 792" xml:space="preserve">
<path id="path4597" fill="#8EC74A" d="M269.222,326.354c-36.167,36.262-55.4,58.27-75.601,89.453
	c-18.001,27.791-29.942,50.299-33.158,59.87c-9.296,27.667-0.758,34.757,10.409,43.124s26.037,19.23,35.811,23.321
	c6.52,2.729,12.448,4.839,22.437-3.868c9.989-8.708,41.665-39.788,49.627-48.228c14.257-15.108,7.448-19.42,2.044-28.24
	c-5.403-8.82-21.546-24.671-21.147-35.11c0.416-10.866,5.165-15.429,12.378-24.61c6.896-8.777,33.148-35.063,35.498-37.413
	c0.012-0.012,0.1-0.1,0.132-0.133c2.351-2.35,28.631-28.606,37.413-35.497c9.182-7.214,13.745-11.965,24.611-12.38
	c10.44-0.398,26.29,15.744,35.111,21.148c8.82,5.402,13.132,12.211,28.24-2.045c8.438-7.963,39.521-39.638,48.226-49.627
	c8.708-9.988,6.598-15.918,3.869-22.438c-4.091-9.774-14.954-24.644-23.321-35.811c-8.368-11.167-15.457-19.705-43.125-10.408
	c-9.57,3.214-32.078,15.156-59.869,33.158c-31.184,20.201-53.19,39.436-89.454,75.601L269.222,326.354L269.222,326.354z"/>
</svg>
