<?xml version="1.0" encoding="utf-8"?>
<!-- Generator: Adobe Illustrator 15.0.0, SVG Export Plug-In . SVG Version: 6.00 Build 0)  -->
<!DOCTYPE svg PUBLIC "-//W3C//DTD SVG 1.1//EN" "http://www.w3.org/Graphics/SVG/1.1/DTD/svg11.dtd">
<svg version="1.1"
	 id="svg3977" xmlns:rdf="http://www.w3.org/1999/02/22-rdf-syntax-ns#" xmlns:cc="http://creativecommons.org/ns#" xmlns:dc="http://purl.org/dc/elements/1.1/" xmlns:svg="http://www.w3.org/2000/svg"
	 xmlns="http://www.w3.org/2000/svg" xmlns:xlink="http://www.w3.org/1999/xlink" x="0px" y="0px" width="612px" height="792px"
	 viewBox="0 0 612 792" enable-background="new 0 0 612 792" xml:space="preserve">
<ellipse fill="#007BC1" cx="430.106" cy="264.5" rx="71.394" ry="53"/>
<ellipse fill="#007BC1" cx="475.206" cy="227.5" rx="56.184" ry="47.503"/>
<ellipse fill="#007BC1" cx="468.556" cy="281.5" rx="46.057" ry="41"/>
<ellipse fill="#007BC1" cx="358.713" cy="206" rx="70.5" ry="67.5"/>
<ellipse fill="#007BC1" cx="353.75" cy="132.5" rx="62.75" ry="33"/>
<ellipse fill="#007BC1" cx="398.83" cy="101.491" rx="76.375" ry="41.5"/>
<ellipse fill="#007BC1" cx="299.853" cy="108.997" rx="69.147" ry="33.5"/>
<ellipse fill="#007BC1" cx="260.813" cy="206" rx="81.188" ry="42.997"/>
<ellipse fill="#007BC1" cx="280.955" cy="153.992" rx="41.5" ry="41.005"/>
<ellipse fill="#007BC1" cx="429.213" cy="179" rx="69.5" ry="64"/>
<path id="path2399" fill="#00A2E0" d="M344.25,291.887c-10.596,0-19.125,6.532-19.125,14.646v12.245
	c0,8.115,8.529,14.647,19.125,14.647h5.977c-3.575,1.845-5.977,5.009-5.977,8.583v91.313c0-8.115-8.529-14.646-19.125-14.646H229.5
	V341.32c0-4.375-4.595-7.895-10.309-7.895h-57.078c-5.714,0-10.309,3.519-10.309,7.895v77.354H97.566
	c-10.596,0-19.125,6.531-19.125,14.646v75.867c0,8.113,8.529,14.646,19.125,14.646h-1.941c-10.595,0-19.125,6.531-19.125,14.646
	v29.295c0,8.128,8.53,14.646,19.125,14.646h11.953v0.439c0,24.058,25.389,43.609,56.777,43.609s56.926-19.553,56.926-43.609
	c0-0.146,0.004-0.293,0-0.439h17.93v0.439c0,24.058,25.541,43.609,56.93,43.609c31.384,0,56.773-19.553,56.773-43.609
	c0-0.146,0.004-0.293,0-0.439h19.727c6.103,25.521,35.276,44.855,70.371,44.855s64.279-19.334,70.398-44.855h2.965
	c10.614,0,19.125-6.518,19.125-14.646v-29.295c0-8.114-8.511-14.646-19.125-14.646h1.626c7.458,0,13.482-4.581,13.482-10.298
	V342.007c0-3.573-2.438-6.737-5.978-8.583h10.758c10.567,0,19.125-6.532,19.125-14.647v-12.245c0-8.114-8.558-14.646-19.125-14.646
	H344.25V291.887z"/>
<path id="path4513" fill="#007BC1" d="M514.611,574.269c0,39.538-32.053,71.591-71.59,71.591c-39.538,0-71.591-32.053-71.591-71.59
	s32.053-71.59,71.591-71.59C482.559,502.68,514.611,534.731,514.611,574.269z"/>
<path id="path4523" fill="#007BC1" d="M221.279,587.907c0,31.402-25.458,56.859-56.86,56.859s-56.86-25.457-56.86-56.859
	s25.457-56.859,56.86-56.859S221.279,556.505,221.279,587.907z"/>
<path id="path4529" fill="#007BC1" d="M352.95,587.907c0,31.402-25.457,56.859-56.86,56.859c-31.403,0-56.86-25.457-56.86-56.859
	s25.457-56.859,56.86-56.859C327.493,531.048,352.95,556.505,352.95,587.907z"/>
</svg>
