<?xml version="1.0" encoding="utf-8"?>
<!-- Generator: Adobe Illustrator 15.0.0, SVG Export Plug-In . SVG Version: 6.00 Build 0)  -->
<!DOCTYPE svg PUBLIC "-//W3C//DTD SVG 1.1//EN" "http://www.w3.org/Graphics/SVG/1.1/DTD/svg11.dtd">
<svg version="1.1"
	 id="svg4116" xmlns:rdf="http://www.w3.org/1999/02/22-rdf-syntax-ns#" xmlns:dc="http://purl.org/dc/elements/1.1/" xmlns:cc="http://creativecommons.org/ns#" xmlns:svg="http://www.w3.org/2000/svg"
	 xmlns="http://www.w3.org/2000/svg" xmlns:xlink="http://www.w3.org/1999/xlink" x="0px" y="0px" width="612px" height="792px"
	 viewBox="0 0 612 792" enable-background="new 0 0 612 792" xml:space="preserve">
<g id="layer1" transform="translate(115.09 -544.5)">
	<path id="path3765" fill="#0083CA" stroke="#0083CA" stroke-width="5" stroke-miterlimit="10" d="M241.462,706.059
		c-14.554,0.607-28.34,6.159-35.999,18.346l-17.374,27.659c-0.124,0.192-0.293,0.359-0.417,0.556L70.227,939.559l-1.529,2.502
		l-0.138,3.058l-7.228,140.794l-0.973,20.433l17.791-9.729l123.841-67.688l2.641-1.39l1.667-2.502L341.535,809.88
		c8.753-13.927,6.266-31.119-1.807-45.864c-8.073-14.747-21.917-28.579-39.474-39.612c-17.556-11.033-35.749-17.33-52.54-18.208
		C245.616,706.086,243.539,705.971,241.462,706.059L241.462,706.059z M242.296,728.853c1.31-0.036,2.709,0.063,4.169,0.138
		c11.689,0.611,26.934,5.594,41.697,14.872s25.792,20.728,31.411,30.995c4.745,8.668,5.544,15.346,3.753,20.292
		c-0.476-0.978-0.865-1.96-1.39-2.918c-8.073-14.748-21.778-28.579-39.334-39.612s-35.888-17.33-52.679-18.207
		c-1.072-0.057-2.125-0.134-3.195-0.139c3.138-3.135,8.13-5.212,15.565-5.421H242.296z M224.505,757.206
		c1.31-0.036,2.709-0.077,4.17,0c11.688,0.611,26.933,5.594,41.696,14.872c14.763,9.278,25.791,20.866,31.412,31.134
		c5.43,9.919,5.81,17.134,2.918,22.238l-9.59,15.428c-0.713-1.594-1.511-3.169-2.362-4.726c-7.779-14.209-21.142-27.677-38.362-38.5
		s-35.248-17.083-51.423-17.929c-1.787-0.093-3.521-0.051-5.282,0l9.313-14.872h0.138l0.28-0.556
		c2.923-4.159,8.33-6.843,17.096-7.089L224.505,757.206z M197.68,796.957c1.402-0.044,2.91,0.059,4.448,0.138
		c11.59,0.606,26.033,5.158,40.307,13.622l-81.307,129.4c-21.2,12.622-41.136,11.083-59.625,7.088l-7.922-1.668l91.453-145.798
		c3.335-1.639,7.548-2.625,12.648-2.78L197.68,796.957z M249.802,815.442c12.765,8.896,22.373,19.392,27.66,29.048
		c3.461,6.324,5.071,11.774,5.003,16.54l-91.177,144.824l-3.197-4.309c-11.619-14.928-21.636-32.13-19.459-56.708l81.17-129.399
		V815.442z M160.431,949.428c-0.636,26.863,12.38,46.086,24.878,61.431l0.696,0.834l-79.222,43.226
		c-3.914-7.571-10.447-11.632-20.293-12.647l4.587-89.51l3.196,0.834c19.236,4.604,42.248,8.026,66.159-4.17L160.431,949.428z"/>
</g>
<g>
	<path fill="#55C0EE" d="M175.591,577.014c10.151,0.691,20.302,1.349,30.452,1.959c10.146,0.648,20.292,1.264,30.437,1.81
		c20.285,1.104,40.562,2.091,60.798,2.521c20.212,0.489,40.448,0.583,60.291-0.778c9.896-0.648,19.734-1.664,29.002-3.611
		c4.616-0.979,9.086-2.209,13.083-3.817c3.99-1.598,7.466-3.624,9.748-5.901c2.279-2.311,3.431-4.657,4.017-7.879
		c0.564-3.212,0.309-7.254-0.408-11.562c-0.721-4.317-1.909-8.895-3.24-13.562l-1.032-3.523l-0.249-0.816
		c-0.115-0.392-0.126-0.368-0.214-0.628c-0.147-0.418-0.312-0.853-0.489-1.3c-0.713-1.79-1.639-3.747-2.67-5.74
		c-2.012-4.027-4.46-8.205-6.964-12.457c-2.496-4.266-5.087-8.62-7.629-13.115c-2.548-4.494-5.057-9.124-7.419-14.002
		c-2.357-4.887-4.57-10.002-6.379-15.715c-0.873-2.872-1.646-5.899-2.152-9.235c-0.485-3.332-0.762-7.009-0.166-11.159
		c0.306-2.064,0.854-4.247,1.736-6.413c0.877-2.164,2.114-4.298,3.619-6.167c1.505-1.872,3.255-3.464,5.048-4.73
		c1.794-1.278,3.636-2.224,5.417-2.962c3.575-1.467,6.928-2.151,10.088-2.56c3.162-0.407,6.161-0.455,9.063-0.38
		c5.794,0.156,11.23,0.932,16.526,1.932c10.567,2.052,20.57,5.072,30.35,8.574c9.76,3.542,19.285,7.521,28.546,12.149l-0.699,2.4
		c-10.262-1.047-20.375-2.367-30.423-3.417c-10.029-1.056-20.011-1.983-29.663-2.141c-4.809-0.08-9.546,0.059-13.915,0.563
		c-2.178,0.262-4.255,0.652-6.1,1.13c-1.839,0.481-3.438,1.124-4.484,1.789c-1.069,0.681-1.447,1.241-1.491,1.524
		c-0.034,0.291-0.06,0.537-0.055,1.48c0.009,0.907,0.16,2.354,0.58,4.016c0.408,1.666,1.04,3.54,1.816,5.474
		c1.517,3.898,3.579,8.036,5.785,12.228c2.218,4.199,4.626,8.471,7.066,12.834c2.448,4.362,4.935,8.816,7.376,13.436
		c2.425,4.639,4.804,9.419,7.031,14.633c1.079,2.631,2.116,5.371,3.017,8.401c0.225,0.759,0.439,1.537,0.642,2.342
		c0.088,0.351,0.245,0.986,0.288,1.211l0.22,1.031l0.782,3.881c1.014,5.221,1.941,10.607,2.428,16.389
		c0.46,5.762,0.517,12.041-1.146,18.782c-0.831,3.347-2.173,6.77-4.076,9.898c-1.894,3.135-4.319,5.918-6.944,8.183
		c-5.288,4.56-11.079,7.182-16.603,9.076c-5.562,1.871-11.019,3.006-16.399,3.846c-10.758,1.632-21.254,2.092-31.666,2.205
		c-20.81,0.013-41.259-1.487-61.632-3.357c-40.703-4.023-81.028-9.738-121.226-16.283L175.591,577.014z"/>
</g>
</svg>
