<?xml version="1.0" encoding="utf-8"?>
<!-- Generator: Adobe Illustrator 15.0.0, SVG Export Plug-In . SVG Version: 6.00 Build 0)  -->
<!DOCTYPE svg PUBLIC "-//W3C//DTD SVG 1.1//EN" "http://www.w3.org/Graphics/SVG/1.1/DTD/svg11.dtd">
<svg version="1.1" id="Layer_1" xmlns="http://www.w3.org/2000/svg" xmlns:xlink="http://www.w3.org/1999/xlink" x="0px" y="0px"
	 width="612px" height="792px" viewBox="0 0 612 792" enable-background="new 0 0 612 792" xml:space="preserve">
<g>
	
		<path fill="#8B5E3C" stroke="#8B5E3C" stroke-width="5" stroke-linecap="round" stroke-linejoin="round" stroke-miterlimit="10" d="
		M366.471,389.191H205.947c0,0-1.309,13.116-1.667,31.683c-0.872,44.981,3.824,121.96,46.174,121.96c59.833,0,63.481,0,63.481,0
		S366.471,536.856,366.471,389.191z"/>
	
		<path fill="#8B5E3C" stroke="#8B5E3C" stroke-width="5" stroke-linecap="round" stroke-linejoin="round" stroke-miterlimit="10" d="
		M213.982,404.38c-36.393-4.894-47.887,39.134-47.887,39.134s-1.277,44.026,52.355,37.503c53.632-6.521,0-17.119,0-17.119
		s-45.969-7.059-37.031-21.06c8.938-14,37.67-29.49,41.502-18.076C226.751,436.176,213.982,404.38,213.982,404.38z"/>
</g>
<path fill="none" stroke="#A97C50" stroke-width="20" stroke-linecap="round" stroke-linejoin="round" stroke-miterlimit="10" d="
	M348.326,285.312c0,0-18.813,11.514-21.711,21.652c-5.016,17.548,2.541,15.714,0.449,27.845c-2.092,12.13-12.55,18.926-9.063,30.571
	"/>
<path fill="none" stroke="#A97C50" stroke-width="20" stroke-linecap="round" stroke-linejoin="round" stroke-miterlimit="10" d="
	M297.313,281.434c0,0-18.814,12.629-21.712,23.75c-5.015,19.248,2.541,17.235,0.45,30.542c-2.092,13.306-12.55,20.758-9.063,33.532"
	/>
</svg>
