<?xml version="1.0" encoding="utf-8"?>
<!-- Generator: Adobe Illustrator 15.0.0, SVG Export Plug-In . SVG Version: 6.00 Build 0)  -->
<!DOCTYPE svg PUBLIC "-//W3C//DTD SVG 1.1//EN" "http://www.w3.org/Graphics/SVG/1.1/DTD/svg11.dtd">
<svg version="1.1"
	 id="svg3231" xmlns:rdf="http://www.w3.org/1999/02/22-rdf-syntax-ns#" xmlns:cc="http://creativecommons.org/ns#" xmlns:dc="http://purl.org/dc/elements/1.1/" xmlns:svg="http://www.w3.org/2000/svg"
	 xmlns="http://www.w3.org/2000/svg" xmlns:xlink="http://www.w3.org/1999/xlink" x="0px" y="0px" width="612px" height="792px"
	 viewBox="0 0 612 792" enable-background="new 0 0 612 792" xml:space="preserve">
<path id="path3241" fill="#8D0C05" fill-opacity="0.9922" d="M95.674,236.936l-57.436,95.094l-36.31,1.206l15.184,324.341
	l577.764,5.091l15.184-349.706l-23.45,0.763l-52.54-71.715l-66.251,75.706l-303.907,9.703L95.674,236.936L95.674,236.936z"/>
<path id="path3249" fill="#8D0C05" fill-opacity="0.9922" d="M189.42,660.13l248.333-0.194l-5.056-492.355l-48.158-0.178
	L313.587,57.036l-76.008,115.617h-50.695L189.42,660.13z"/>
<path id="path3765" fill="#FFFFFF" fill-opacity="0.9922" d="M267.982,500.487l5.073,88.69l93.746,2.537l5.073-98.837
	C329.905,447.753,296.452,457.898,267.982,500.487L267.982,500.487z"/>
<path id="path3769" fill="#FFFFFF" fill-opacity="0.9922" d="M270.519,231.88l4.009,76.025h80.247l4.435-78.562
	C327.103,210.045,302.606,210.63,270.519,231.88z"/>
<path id="path3775" fill="#FFFFFF" fill-opacity="0.9922" d="M55.102,418.934v105.278l94.379-3.633V415.325L55.102,418.934
	L55.102,418.934z"/>
<path id="path3793" fill="#FFFFFF" fill-opacity="0.9922" d="M47.428,522.385v17.964l109.092-2.565l1.296-19.237L47.428,522.385
	L47.428,522.385z"/>
<path id="path3801" fill="#FFFFFF" fill-opacity="0.9922" d="M264.949,306.575l-0.337,14.19l97.346-0.16l1.508-15.184
	L264.949,306.575L264.949,306.575z"/>
<path id="path3805_2_" fill="#FFFFFF" fill-opacity="0.9922" d="M250.421,186.772l60.93-98.553l55.538,91.386"/>
<path id="path3775_1_" fill="#FFFFFF" fill-opacity="0.9922" d="M463.068,404.553v105.278l94.379-3.633V400.944L463.068,404.553
	L463.068,404.553z"/>
<path id="path3793_1_" fill="#FFFFFF" fill-opacity="0.9922" d="M455.395,508.004v17.964l109.092-2.565l1.296-19.237
	L455.395,508.004L455.395,508.004z"/>
</svg>
